<?xml version="1.0" standalone="no"?>
<!DOCTYPE svg PUBLIC "-//W3C//DTD SVG 20010904//EN"
 "http://www.w3.org/TR/2001/REC-SVG-20010904/DTD/svg10.dtd">
<svg version="1.0" xmlns="http://www.w3.org/2000/svg"
 width="208.000000pt" height="283.000000pt" viewBox="0 0 208.000000 283.000000"
 preserveAspectRatio="xMidYMid meet">

<g transform="translate(0.000000,283.000000) scale(0.100000,-0.100000)"
fill="#000000" stroke="none">
<path d="M926 2274 c-101 -24 -192 -80 -286 -174 -127 -127 -201 -270 -242
-470 -26 -126 -21 -365 11 -480 88 -322 289 -541 546 -595 88 -18 122 -18 209
0 278 59 494 316 561 668 18 97 19 286 1 387 -35 197 -118 361 -246 491 -70
71 -101 94 -170 127 -47 22 -109 45 -138 51 -71 15 -174 13 -246 -5z m265 -60
c169 -50 307 -178 399 -368 97 -201 120 -452 64 -686 -9 -36 -40 -116 -71
-179 -48 -100 -65 -124 -141 -201 -103 -103 -195 -155 -310 -172 -291 -45
-575 192 -666 556 -59 233 -34 482 69 691 70 143 180 262 295 321 106 54 254
69 361 38z"/>
<path d="M613 1855 c-24 -10 -33 -22 -38 -47 -3 -18 -5 -199 -3 -401 l3 -369
34 -30 33 -30 114 4 c155 4 158 7 162 163 l4 115 -76 0 -75 0 -3 -62 c-2 -50
-6 -63 -20 -66 -17 -3 -18 16 -18 287 0 284 0 291 20 291 18 0 20 -7 20 -65
l0 -65 75 0 75 0 0 116 c0 63 -4 124 -10 134 -5 10 -24 23 -41 29 -46 16 -217
13 -256 -4z m265 -137 l3 -98 -36 0 -35 0 0 64 c0 49 -4 65 -16 70 -27 10 -89
7 -102 -6 -17 -17 -17 -629 0 -646 13 -13 75 -16 102 -6 12 5 16 21 16 65 l0
59 35 0 35 0 0 -82 c0 -113 -5 -118 -131 -118 -149 0 -139 -29 -139 411 0 196
3 365 6 373 5 14 24 16 133 14 l126 -3 3 -97z"/>
<path d="M980 1426 l0 -446 75 0 75 0 0 186 c0 171 1 185 18 182 15 -3 17 -21
20 -186 l2 -182 75 0 75 0 0 195 c0 184 -8 245 -31 245 -5 0 0 15 11 33 18 28
20 50 20 184 0 224 -1 226 -202 231 l-138 4 0 -446z m284 378 c13 -13 16 -42
16 -165 l0 -149 -29 -32 -28 -32 28 -24 29 -24 0 -179 0 -179 -35 0 -35 0 0
169 c0 164 -1 170 -22 185 -12 9 -39 16 -60 16 l-38 0 0 -185 0 -185 -35 0
-35 0 0 400 0 400 114 0 c91 0 118 -3 130 -16z"/>
<path d="M1090 1610 l0 -140 44 0 c71 0 76 11 76 156 l0 124 -60 0 -60 0 0
-140z m78 3 c-3 -84 -6 -98 -20 -101 -16 -3 -18 7 -18 97 0 95 1 101 20 101
20 0 21 -5 18 -97z"/>
<path d="M1380 1425 l0 -445 75 0 75 0 0 445 0 445 -75 0 -75 0 0 -445z m110
-5 l0 -400 -35 0 -35 0 0 400 0 400 35 0 35 0 0 -400z"/>
</g>
</svg>
